<?xml version="1.0" encoding="utf-8"?>
<!-- Generator: Adobe Illustrator 24.1.2, SVG Export Plug-In . SVG Version: 6.00 Build 0)  -->
<svg version="1.1"
	 id="GUIDE" xmlns:cc="http://creativecommons.org/ns#" xmlns:dc="http://purl.org/dc/elements/1.1/" xmlns:inkscape="http://www.inkscape.org/namespaces/inkscape" xmlns:rdf="http://www.w3.org/1999/02/22-rdf-syntax-ns#" xmlns:sodipodi="http://sodipodi.sourceforge.net/DTD/sodipodi-0.dtd" xmlns:svg="http://www.w3.org/2000/svg"
	 xmlns="http://www.w3.org/2000/svg" xmlns:xlink="http://www.w3.org/1999/xlink" x="0px" y="0px" viewBox="0 0 800 800"
	 style="enable-background:new 0 0 800 800;" xml:space="preserve">
<style type="text/css">
	.st0{fill:#212529;}
</style>
<g>
	<path class="st0" d="M562.3,221.6H237.6c-8.9,0-16.1,7.2-16.1,16.1v324.6c0,8.9,7.2,16.1,16.1,16.1h324.6c8.9,0,16.1-7.2,16.1-16.1
		V237.7C578.4,228.9,571.1,221.6,562.3,221.6z M546.1,546.3H253.7V253.9H546v292.4H546.1z"/>
	<path class="st0" d="M783.9,362.1c8.9,0,16.1-7.2,16.1-16.1c0-8.9-7.2-16.1-16.1-16.1H655.7v-75.9h128.1c8.9,0,16.1-7.2,16.1-16.1
		s-7.2-16.1-16.1-16.1H655.7v-61.1c0-8.9-7.2-16.1-16.1-16.1h-61.1V16.1c0-8.9-7.2-16.1-16.1-16.1c-8.9,0-16.1,7.2-16.1,16.1v128.1
		h-75.9V16.1C470.2,7.2,463,0,454.1,0c-8.9,0-16.1,7.2-16.1,16.1v128.1h-75.9V16.1c0-8.9-7.2-16.1-16.1-16.1
		c-8.9,0-16.1,7.2-16.1,16.1v128.1h-75.9V16.1c0-8.9-7.2-16.1-16.1-16.1s-16.1,7.2-16.1,16.1v128.1h-61.1c-8.9,0-16.1,7.2-16.1,16.1
		v61.1H16.1c-8.9,0-16.1,7.2-16.1,16.1c0,8.9,7.2,16.1,16.1,16.1h128.1v75.9H16.1C7.2,329.8,0,337,0,345.9c0,8.9,7.2,16.1,16.1,16.1
		h128.1v75.9H16.1c-8.9,0-16.1,7.2-16.1,16.1c0,8.9,7.2,16.1,16.1,16.1h128.1v75.9H16.1c-8.9,0-16.1,7.2-16.1,16.1
		c0,8.9,7.2,16.1,16.1,16.1h128.1v61.1c0,8.9,7.2,16.1,16.1,16.1h61.1v128.1c0,8.9,7.2,16.1,16.1,16.1c8.9,0,16.1-7.2,16.1-16.1
		V655.7h75.9v128.1c0,8.9,7.2,16.1,16.1,16.1c8.9,0,16.1-7.2,16.1-16.1V655.7h75.9v128.1c0,8.9,7.2,16.1,16.1,16.1
		c8.9,0,16.1-7.2,16.1-16.1V655.7h75.9v128.1c0,8.9,7.2,16.1,16.1,16.1c8.9,0,16.1-7.2,16.1-16.1V655.7h61.1
		c8.9,0,16.1-7.2,16.1-16.1v-61.1h128.1c8.9,0,16.1-7.2,16.1-16.1c0-8.9-7.2-16.1-16.1-16.1H655.7v-75.9h128.1
		c8.9,0,16.1-7.2,16.1-16.1c0-8.9-7.2-16.1-16.1-16.1H655.7v-75.9H783.9L783.9,362.1z M623.3,623.4H176.6V176.7h446.8V623.4z"/>
</g>
</svg>
