<?xml version="1.0" encoding="utf-8"?>
<!-- Generator: Adobe Illustrator 24.1.2, SVG Export Plug-In . SVG Version: 6.00 Build 0)  -->
<svg version="1.1"
	 id="GUIDE" xmlns:cc="http://creativecommons.org/ns#" xmlns:dc="http://purl.org/dc/elements/1.1/" xmlns:inkscape="http://www.inkscape.org/namespaces/inkscape" xmlns:rdf="http://www.w3.org/1999/02/22-rdf-syntax-ns#" xmlns:sodipodi="http://sodipodi.sourceforge.net/DTD/sodipodi-0.dtd" xmlns:svg="http://www.w3.org/2000/svg"
	 xmlns="http://www.w3.org/2000/svg" xmlns:xlink="http://www.w3.org/1999/xlink" x="0px" y="0px" viewBox="0 0 800 800"
	 style="enable-background:new 0 0 800 800;" xml:space="preserve">
<style type="text/css">
	.st0{fill:#212529;}
</style>
<g>
	<g>
		<path class="st0" d="M430.5,628.3H212.3c-8,0-14.5-6.6-14.5-14.5v-17.5h-66.9c-8,0-14.5-6.6-14.5-14.5V218.1
			c0-8,6.6-14.5,14.5-14.5h654.6c8,0,14.5,6.6,14.5,14.5v363.6c0,8-6.6,14.5-14.5,14.5H445v17.5C445,621.7,438.6,628.3,430.5,628.3z
			 M226.9,599.2H416v-17.5c0-8,6.6-14.5,14.5-14.5h340.4V232.7H145.4v334.5h66.9c8,0,14.5,6.6,14.5,14.5v17.5H226.9z"/>
	</g>
	<g>
		<path class="st0" d="M436.4,680.6H218.1c-8,0-14.5-6.6-14.5-14.5c0-7.9,6.6-14.5,14.5-14.5h218.2c8,0,14.5,6.6,14.5,14.5
			C450.9,674,444.3,680.6,436.4,680.6z"/>
	</g>
	<g>
		<path class="st0" d="M85.7,690.8c-8,0-14.5-6.6-14.5-14.5V152.7c0-8-6.6-14.5-14.5-14.5H14.5c-8,0-14.5-6.6-14.5-14.5
			s6.6-14.5,14.5-14.5h42.2c24,0,43.6,19.6,43.6,43.6v523.7C100.3,684.3,93.8,690.8,85.7,690.8z"/>
	</g>
	<g>
		<path class="st0" d="M539.5,520.7c-68.2,0-123.6-55.5-123.6-123.6s55.5-123.6,123.6-123.6S663.2,328.9,663.2,397
			C663.3,465.2,607.8,520.7,539.5,520.7z M539.5,302.4c-52.2,0-94.5,42.4-94.5,94.5s42.4,94.5,94.5,94.5c52.1,0,94.5-42.4,94.5-94.5
			S591.7,302.4,539.5,302.4z"/>
	</g>
	<g>
		<path class="st0" d="M539.5,462.4c-36.1,0-65.4-29.3-65.4-65.4s29.3-65.4,65.4-65.4s65.4,29.3,65.4,65.4S575.6,462.4,539.5,462.4z
			 M539.5,360.6c-20,0-36.4,16.3-36.4,36.4s16.3,36.4,36.4,36.4s36.4-16.3,36.4-36.4S559.7,360.6,539.5,360.6z"/>
	</g>
	<g>
		<g>
			<path class="st0" d="M746.1,295.1h-53.9c-8,0-14.5-6.6-14.5-14.5s6.6-14.5,14.5-14.5h53.9c8,0,14.5,6.6,14.5,14.5
				S754.2,295.1,746.1,295.1z"/>
		</g>
		<g>
			<path class="st0" d="M746.1,353.3h-53.9c-8,0-14.5-6.6-14.5-14.5s6.6-14.5,14.5-14.5h53.9c8,0,14.5,6.6,14.5,14.5
				S754.2,353.3,746.1,353.3z"/>
		</g>
		<g>
			<path class="st0" d="M746.1,411.5h-53.9c-8,0-14.5-6.6-14.5-14.5s6.6-14.5,14.5-14.5h53.9c8,0,14.5,6.6,14.5,14.5
				S754.2,411.5,746.1,411.5z"/>
		</g>
		<g>
			<path class="st0" d="M746.1,469.7h-53.9c-8,0-14.5-6.6-14.5-14.5c0-7.9,6.6-14.5,14.5-14.5h53.9c8,0,14.5,6.6,14.5,14.5
				C760.6,463.2,754.2,469.7,746.1,469.7z"/>
		</g>
		<g>
			<path class="st0" d="M746.1,527.8h-53.9c-8,0-14.5-6.6-14.5-14.5s6.6-14.5,14.5-14.5h53.9c8,0,14.5,6.6,14.5,14.5
				S754.2,527.8,746.1,527.8z"/>
		</g>
	</g>
	<g>
		<path class="st0" d="M181.7,538.1c-8,0-14.5-6.6-14.5-14.5V267.5c0-8,6.6-14.5,14.5-14.5s14.5,6.6,14.5,14.5v256
			C196.3,531.6,189.8,538.1,181.7,538.1z"/>
	</g>
	<g>
		<path class="st0" d="M239.9,538.1c-8,0-14.5-6.6-14.5-14.5V267.5c0-8,6.6-14.5,14.5-14.5c7.9,0,14.5,6.6,14.5,14.5v256
			C254.5,531.6,248,538.1,239.9,538.1z"/>
	</g>
</g>
</svg>
