<?xml version="1.0" encoding="utf-8"?>
<!-- Generator: Adobe Illustrator 24.1.2, SVG Export Plug-In . SVG Version: 6.00 Build 0)  -->
<svg version="1.1"
	 id="GUIDE" xmlns:cc="http://creativecommons.org/ns#" xmlns:dc="http://purl.org/dc/elements/1.1/" xmlns:inkscape="http://www.inkscape.org/namespaces/inkscape" xmlns:rdf="http://www.w3.org/1999/02/22-rdf-syntax-ns#" xmlns:sodipodi="http://sodipodi.sourceforge.net/DTD/sodipodi-0.dtd" xmlns:svg="http://www.w3.org/2000/svg"
	 xmlns="http://www.w3.org/2000/svg" xmlns:xlink="http://www.w3.org/1999/xlink" x="0px" y="0px" viewBox="0 0 800 800"
	 style="enable-background:new 0 0 800 800;" xml:space="preserve">
<style type="text/css">
	.st0{fill:#212529;}
</style>
<g>
	<g>
		<path class="st0" d="M687.9,800H112.1c-26.5,0-48-21.5-48-48V48c0-26.5,21.5-48,48-48h575.9c26.5,0,48,21.5,48,48v704
			C736,778.5,714.4,800,687.9,800z M112.1,32.1c-8.8,0-16,7.2-16,16V752c0,8.8,7.2,16,16,16h575.9c8.8,0,16-7.2,16-16V48
			c0-8.8-7.2-16-16-16H112.1V32.1z"/>
	</g>
	<g>
		<path class="st0" d="M400,467.2c-37,0-67.2-30.1-67.2-67.2s30.1-67.2,67.2-67.2s67.2,30.1,67.2,67.2S437,467.2,400,467.2z
			 M400,364.8c-19.4,0-35.2,15.8-35.2,35.2s15.8,35.2,35.2,35.2s35.2-15.8,35.2-35.2S419.4,364.8,400,364.8z"/>
	</g>
	<g>
		<path class="st0" d="M648,116.8c-15.9,0-28.8-12.9-28.8-28.8s12.9-28.8,28.8-28.8s28.8,12.9,28.8,28.8S663.8,116.8,648,116.8z
			 M648,75.2c-7.1,0-12.8,5.7-12.8,12.8c0,7.1,5.7,12.8,12.8,12.8c7.1,0,12.8-5.7,12.8-12.8C660.8,80.9,655,75.2,648,75.2z"/>
	</g>
	<g>
		<path class="st0" d="M152,116.8c-15.9,0-28.8-12.9-28.8-28.8s12.9-28.8,28.8-28.8s28.8,12.9,28.8,28.8S167.9,116.8,152,116.8z
			 M152,75.2c-7.1,0-12.8,5.7-12.8,12.8c0,7.1,5.7,12.8,12.8,12.8c7.1,0,12.8-5.7,12.8-12.8S159.1,75.2,152,75.2z"/>
	</g>
	<g>
		<path class="st0" d="M648,740.8c-15.9,0-28.8-12.9-28.8-28.8s12.9-28.8,28.8-28.8s28.8,12.9,28.8,28.8S663.8,740.8,648,740.8z
			 M648,699.1c-7.1,0-12.8,5.7-12.8,12.8c0,7.1,5.7,12.8,12.8,12.8c7.1,0,12.8-5.7,12.8-12.8C660.8,705,655,699.1,648,699.1z"/>
	</g>
	<g>
		<path class="st0" d="M152,740.8c-15.9,0-28.8-12.9-28.8-28.8s12.9-28.8,28.8-28.8s28.8,12.9,28.8,28.8S167.9,740.8,152,740.8z
			 M152,699.1c-7.1,0-12.8,5.7-12.8,12.8c0,7.1,5.7,12.8,12.8,12.8c7.1,0,12.8-5.7,12.8-12.8C164.8,705,159.1,699.1,152,699.1z"/>
	</g>
	<g>
		<path class="st0" d="M400,628.7c-60.7,0-118.1-23.9-161.5-67.3c-43.4-43.4-67.3-100.8-67.3-161.5s23.9-118.1,67.3-161.5
			s100.8-67.3,161.5-67.3c60.9,0,118.3,23.7,161.5,66.6c43.4,43.2,67.3,100.8,67.3,162.1c0,57.5-20.2,111.3-56.9,151.6
			c-5.9,6.6-16,7-22.6,1.1s-7-16-1.1-22.6c31.3-34.3,48.7-80.5,48.7-130c0-108.5-88.3-196.8-196.8-196.8S203.2,291.5,203.2,400
			S291.5,596.8,400,596.8c23.6,0,43.7-3.3,61.5-10.1c8.3-3.1,17.5,1,20.7,9.1c3.1,8.3-1,17.5-9.1,20.7
			C451.5,624.8,427.7,628.7,400,628.7z"/>
	</g>
	<g>
		<path class="st0" d="M556.9,679.3c-1.9,0-4-0.1-5.9-0.4c-11.8-1.7-22.6-8.4-29.5-18.3l0,0c-11.3-16.1-76.5-165.2-84-182.1
			c-1.5-3.4-0.4-7.5,2.7-9.7c3.1-2.2,7.3-1.9,10.1,0.8c13.5,12.7,132.1,124.2,143.5,140.5c6.9,9.8,9.5,22,7.2,33.5
			c-2.3,11.2-8.8,20.9-18.6,27.2C574.9,676.2,566.1,679.3,556.9,679.3z M534.6,651.3c4.4,6.4,11.3,10.5,18.7,11.6
			c7,1,13.8-0.9,19.4-5.3c0.2-0.2,0.4-0.3,0.8-0.5c6.2-4,10.5-10.1,11.9-17.1c1.4-7.2-0.2-15-4.6-21.1
			c-6.6-9.4-63.5-64.3-112.6-110.9C495.4,570,528,642.1,534.6,651.3L534.6,651.3z"/>
	</g>
	<g>
		<path class="st0" d="M539.2,96H276.9c-4.4,0-8-3.6-8-8s3.6-8,8-8h262.3c4.4,0,8,3.6,8,8C547.1,92.5,543.6,96,539.2,96z"/>
	</g>
</g>
</svg>
