<?xml version="1.0" encoding="utf-8"?>
<!-- Generator: Adobe Illustrator 24.1.2, SVG Export Plug-In . SVG Version: 6.00 Build 0)  -->
<svg version="1.1"
	 id="GUIDE" xmlns:cc="http://creativecommons.org/ns#" xmlns:dc="http://purl.org/dc/elements/1.1/" xmlns:inkscape="http://www.inkscape.org/namespaces/inkscape" xmlns:rdf="http://www.w3.org/1999/02/22-rdf-syntax-ns#" xmlns:sodipodi="http://sodipodi.sourceforge.net/DTD/sodipodi-0.dtd" xmlns:svg="http://www.w3.org/2000/svg"
	 xmlns="http://www.w3.org/2000/svg" xmlns:xlink="http://www.w3.org/1999/xlink" x="0px" y="0px" viewBox="0 0 800 800"
	 style="enable-background:new 0 0 800 800;" xml:space="preserve">
<style type="text/css">
	.st0{fill:#212529;}
</style>
<g>
	<path class="st0" d="M340.2,380c-0.2-4.4-2.1-8.4-5.4-11.3c-3-2.7-6.9-4.2-11-4.2c-4.7,0-9,1.9-12.2,5.4l-0.2,0.2l-0.2,0.2
		l-0.2,0.2c-2.8,3.2-4.2,7.3-4,11.6c0.2,4.4,2.1,8.4,5.4,11.3c3.1,2.8,6.8,4.2,10.9,4.2c4.5,0,9.1-2.1,12.3-5.5l0.2-0.2l0.2-0.2
		l0.2-0.2C339,388.4,340.4,384.3,340.2,380z"/>
	<path class="st0" d="M416.9,380c-0.2-4.4-2.1-8.4-5.4-11.3c-3-2.7-6.9-4.2-11-4.2c-4.7,0-9,1.9-12.2,5.4l-0.2,0.2l-0.2,0.2
		l-0.2,0.2c-2.8,3.2-4.2,7.3-4,11.6c0.2,4.4,2.1,8.4,5.4,11.3c3.1,2.8,6.8,4.2,10.9,4.2c4.6,0,9.1-2,12.3-5.5l0.2-0.2l0.2-0.2
		l0.2-0.2C415.7,388.4,417.1,384.3,416.9,380z"/>
	<path class="st0" d="M489.1,392.1l0.1-0.2l0.2-0.2l0.2-0.2c2.8-3.2,4.2-7.3,4-11.6c-0.2-4.4-2.1-8.4-5.4-11.3
		c-3-2.7-6.9-4.2-11-4.2c-4.7,0-9,1.9-12.2,5.4l-0.2,0.2l-0.2,0.2l-0.2,0.2c-2.8,3.2-4.2,7.3-4,11.6c0.2,4.4,2.1,8.4,5.4,11.3
		c3.1,2.8,6.8,4.2,10.9,4.2C481.4,397.6,485.8,395.6,489.1,392.1z"/>
	<path class="st0" d="M143.7,200.3l0.2-0.2l0.2-0.2l0.2-0.2c5.9-6.7,5.3-16.9-1.4-22.9c-3-2.7-6.9-4.2-11-4.2c-4.7,0-9,1.9-12.2,5.4
		l-0.2,0.2l-0.2,0.2l-0.2,0.2c-5.9,6.7-5.3,16.9,1.4,22.9c3.1,2.8,6.8,4.2,10.9,4.2C136.2,205.7,140.5,203.8,143.7,200.3z"/>
	<path class="st0" d="M220.4,200.3l0.2-0.2l0.2-0.2l0.2-0.2c2.8-3.2,4.2-7.3,4-11.6c-0.2-4.4-2.1-8.4-5.4-11.3
		c-3-2.7-6.9-4.2-11-4.2c-4.7,0-9,1.9-12.2,5.4l-0.2,0.2l-0.2,0.2l-0.2,0.2c-2.8,3.2-4.2,7.3-4,11.6c0.2,4.4,2.1,8.4,5.4,11.3
		c3.1,2.8,6.8,4.2,10.9,4.2C212.9,205.7,217.3,203.8,220.4,200.3z"/>
	<path class="st0" d="M297.1,200.3l0.2-0.2l0.2-0.2l0.2-0.2c2.8-3.2,4.2-7.3,4-11.6c-0.2-4.4-2.1-8.4-5.4-11.3
		c-3-2.7-6.9-4.2-11-4.2c-4.7,0-9,1.9-12.2,5.4l-0.2,0.2l-0.2,0.2l-0.2,0.2c-5.9,6.7-5.3,16.9,1.4,22.9c3.1,2.8,6.8,4.2,10.9,4.2
		C289.6,205.7,294,203.8,297.1,200.3z"/>
	<path class="st0" d="M800,342.5c0-51.4-41.8-93.2-93.2-93.2h-86.2h-12.4V237v-86.2c0-51.4-41.8-93.2-93.2-93.2H93.2
		C41.8,57.6,0,99.4,0,150.7v306.7c0,51.4,41.8,93.2,93.2,93.2h86.2h12.4V563v86.2c0,51.4,41.8,93.2,93.2,93.2h422
		c51.3,0,93-41.7,93-92.9V342.5z M191.8,342.5v163V518h-12.4H93.2c-33.2,0-60.3-27-60.3-60.3v-307c0-33.2,27-60.3,60.3-60.3h422.1
		c33.2,0,60.3,27,60.3,60.3V237v12.4h-12.4H284.9C233.6,249.4,191.8,291.2,191.8,342.5z M767.1,649.3c0,33.2-27,60.3-60.3,60.3
		H284.9c-33.2,0-60.3-27-60.3-60.3v-307c0-33.2,27-60.3,60.3-60.3h12.4v0.2h409.5c33.2,0,60.3,27,60.3,60.3V649.3z"/>
</g>
</svg>
