<?xml version="1.0" encoding="utf-8"?>
<!-- Generator: Adobe Illustrator 24.1.2, SVG Export Plug-In . SVG Version: 6.00 Build 0)  -->
<svg version="1.1"
	 id="GUIDE" xmlns:cc="http://creativecommons.org/ns#" xmlns:dc="http://purl.org/dc/elements/1.1/" xmlns:inkscape="http://www.inkscape.org/namespaces/inkscape" xmlns:rdf="http://www.w3.org/1999/02/22-rdf-syntax-ns#" xmlns:sodipodi="http://sodipodi.sourceforge.net/DTD/sodipodi-0.dtd" xmlns:svg="http://www.w3.org/2000/svg"
	 xmlns="http://www.w3.org/2000/svg" xmlns:xlink="http://www.w3.org/1999/xlink" x="0px" y="0px" viewBox="0 0 800 800"
	 style="enable-background:new 0 0 800 800;" xml:space="preserve">
<style type="text/css">
	.st0{fill:#212529;}
</style>
<g>
	<path class="st0" d="M783.9,195.8H16.1C7.2,195.8,0,203,0,211.9v269.1v107c0,8.9,7.2,16.1,16.1,16.1h318.7c4.3,0,8.4-1.7,11.4-4.7
		c3-3,4.7-7.1,4.7-11.4v-25.2h98v25.2c0,8.9,7.2,16.1,16.1,16.1h318.7c8.9,0,16.1-7.2,16.1-16.1v-107V211.9
		C800,203,792.8,195.8,783.9,195.8z M767.7,571.9h-29.8v-31.6c0-8.9-7.2-16.1-16.1-16.1s-16.1,7.2-16.1,16.1v31.6h-37v-31.6
		c0-8.9-7.2-16.1-16.1-16.1s-16.1,7.2-16.1,16.1v31.6h-37.1v-31.6c0-8.9-7.2-16.1-16.1-16.1s-16.1,7.2-16.1,16.1v31.6h-37v-31.6
		c0-8.9-7.2-16.1-16.1-16.1s-16.1,7.2-16.1,16.1v31.6h-16.1v-25.2c0-8.9-7.2-16.1-16.1-16.1H335c-4.3,0-8.4,1.7-11.4,4.7
		c-3,3-4.7,7.1-4.7,11.4v25.2h-16.1v-31.6c0-8.9-7.2-16.1-16.1-16.1s-16.1,7.2-16.1,16.1v31.6h-37.2v-31.6c0-8.9-7.2-16.1-16.1-16.1
		s-16.1,7.2-16.1,16.1v31.6h-37v-31.6c0-8.9-7.2-16.1-16.1-16.1s-16.1,7.2-16.1,16.1v31.6h-37v-31.6c0-8.9-7.2-16.1-16.1-16.1
		s-16.1,7.2-16.1,16.1v31.6H32.3v-74.7h735.3v74.7H767.7z M767.7,464.9H32.3V228.1h735.3v236.8H767.7z"/>
	<path class="st0" d="M169.5,316.6H78.4c-8.9,0-16.1,7.2-16.1,16.1v134.6c0,8.9,7.2,16.1,16.1,16.1h91.2c8.9,0,16.1-7.2,16.1-16.1
		V332.7C185.7,323.8,178.4,316.6,169.5,316.6z M153.4,451.1H94.5V348.9h58.9V451.1z"/>
	<path class="st0" d="M353.5,316.6h-91.2c-8.9,0-16.1,7.2-16.1,16.1v134.6c0,8.9,7.2,16.1,16.1,16.1h91.2c8.9,0,16.1-7.2,16.1-16.1
		V332.7C369.6,323.8,362.4,316.6,353.5,316.6z M337.4,451.1h-58.9V348.9h58.9V451.1z"/>
	<path class="st0" d="M537.6,316.6h-91.2c-8.9,0-16.1,7.2-16.1,16.1v134.6c0,8.9,7.2,16.1,16.1,16.1h91.2c8.9,0,16.1-7.2,16.1-16.1
		V332.7C553.7,323.8,546.5,316.6,537.6,316.6z M521.4,451.1h-58.9V348.9h58.9V451.1z"/>
	<path class="st0" d="M721.6,316.6h-91.2c-8.9,0-16.1,7.2-16.1,16.1v134.6c0,8.9,7.2,16.1,16.1,16.1h91.2c8.9,0,16.1-7.2,16.1-16.1
		V332.7C737.8,323.8,730.6,316.6,721.6,316.6z M705.5,451.1h-58.9V348.9h58.9V451.1z"/>
</g>
</svg>
